Patient4_TMGait_0pt4_02_left_24_EMG.mot
version=1
nRows=36
nColumns=33
inDegrees=no
endheader
time	1LAddLong	2LGlutMax	3LGlutMed	4LIliopsoas	5LSemiMemb	6LBicFemLong	7LRecFem	8LVastMed	9LVastLat	10LGasMed	11LTibAnt	12lTibPost	13LPeroneusLong	14LSol	15LExtDigLong	16LFlexDigLong	17RAddLong	18RGlutMax	19RGlutMed	20RIliopsoas	21RSemiMemb	22RBicFemLong	23RRecFem	24RVastMed	25RVastLat	26RGasMed	27RTibAnt	28RTibPost	29RPeroneusLong	30RSol	31RExtDigLong	32RFlexDigLong
32.13	0.004578	0.060577	-0.037842	0.003357	0.00061	0.027008	0.087738	0.037384	-0.21088	-0.024872	0.064545	0.003662	0.018005	-0.049286	-0.056	-0.021362	0.005188	-0.35431	0.18967	0.13748	-0.086975	0.15137	0.049591	-0.058746	-0.034637	-0.018616	0.17181	-0.008392	0.054169	-0.081024	-0.000916	-0.010071
32.131	0.008392	0.071869	-0.023651	0.008545	0.001373	0.019531	0.073395	0.007782	-0.21271	-0.003357	0.098114	-0.007019	-0.040588	-0.10376	-0.22705	-0.011292	-0.00946	-0.32013	0.049591	0.13779	0.14587	0.1535	0.00824	-0.070038	0.014954	-0.019531	0.076294	-0.006256	-0.38803	-0.050354	-0.002136	-0.007629
32.132	0.013275	0.093079	-0.019989	0.016937	0.008545	0.021515	0.04837	0.017242	-0.20325	-0.005341	0.062408	0.005646	-0.036011	-0.083923	-0.12482	-0.012817	0.003967	-0.24628	0.74951	0.064392	0.092316	0.13046	-0.056915	-0.089722	0.10361	-0.008545	0.000916	-0.000458	-1.3156	0.016632	-0.001678	-0.005035
32.133	0.00946	0.094299	0.022583	0.020142	0.011444	0.029449	0.032196	0.009766	-0.19852	-0.030823	0.031433	-0.008392	0.034637	-0.067444	-0.069275	-0.00885	-0.009918	-0.19714	0.92331	0.056152	-0.036163	0.10223	-0.12344	0.033875	0.1532	0.005035	0.010071	-0.008087	0.045776	0.058594	0.002441	-0.004883
32.134	0.009766	0.036011	0.010986	0.025787	0.006561	0.028229	0.009155	0.016022	-0.19669	-0.033875	-0.068512	0.003815	0.084381	-0.0383	0.095215	-0.004578	-0.009766	-0.16113	0.61295	-0.024261	0.15381	0.062256	-0.16998	0.098419	0.23438	0.017242	0.046234	-0.001526	0.42465	-0.042725	0.001526	0.00412
32.135	0.002136	0.074463	0.028076	0.014801	0.011902	0.023193	-0.020142	0.010376	-0.14175	-0.018158	-0.066528	0.002441	0.098114	-0.04776	0.1059	-0.003662	-0.003662	-0.16876	0.34714	-0.027008	0.16174	0.028992	-0.068665	0.090027	0.13779	0.040894	0.006866	-0.005646	0.70999	-0.051575	0.001373	-0.001221
32.136	0.012817	0.062714	-0.001678	-0.01709	0.005341	0.016479	-0.047302	0.005188	-0.11887	0.001221	-0.026093	0.007019	0.044861	-0.060883	0.064545	-0.010986	0.010834	-0.17609	-0.16754	-0.037079	0.047607	0.056915	0.070801	-0.047302	0.003662	0.034637	-0.023956	-0.012054	0.38559	-0.10925	0.000153	-0.001984
32.137	0.005798	0.040436	-0.056915	-0.000153	0.013428	0.027008	-0.10468	0.007935	-0.094757	0.007477	-0.022736	0.004425	0.023499	-0.079498	0.018005	-0.012817	0.01358	-0.25497	0.39627	-0.050354	-0.024414	0.10376	0.14664	-0.076447	-0.089569	0.006104	0.04715	-0.007172	-0.51743	-0.09201	-0.004883	-0.010376
32.138	0.008698	-0.000153	-0.03479	-0.002441	0.006409	0.040741	-0.15595	0.009918	-0.059509	0.001068	-0.04425	0.001221	0.049896	-0.071411	-0.035858	-0.013885	0.018005	-0.32272	0.54047	-0.073242	0.026245	0.10864	0.3122	-0.020294	-0.11612	-0.035095	0.068665	0.002441	-0.26321	-0.090179	0.001221	-0.015106
32.139	0.003967	0.003204	-0.035095	-0.00061	0.00824	0.040741	-0.17838	0.010376	-0.041351	-0.000458	0.044403	0.003052	0.025635	-0.02243	0.042419	-0.007477	0.022736	-0.26871	-0.63355	0.034027	0.12833	0.095367	0.42557	-0.019073	-0.15564	-0.070801	0.064087	0.013275	-0.083313	-0.20157	0.002594	-0.017395
32.14	0.016174	-0.033417	-0.03891	-0.012665	0.010071	0.042114	-0.18692	0.00824	-0.030823	0.006256	0.031281	0.003967	0.034485	-0.020599	0.15457	-0.008698	0.029602	-0.2507	-1.0141	0.040588	0.15732	0.096588	0.46967	-0.085144	-0.16037	-0.041809	0.039673	0.004425	-0.1619	-0.46509	-0.004578	-0.022278
32.141	0.009003	-0.011444	-0.07782	0.018768	0.007477	0.025787	-0.18677	0.007172	0.014038	-0.013275	0.021057	0.005035	-0.006866	-0.010529	0.61432	-0.002594	0.002899	-0.20767	-0.42755	-0.008087	0.071259	0.087585	0.28183	-0.018768	-0.12238	0.007629	0.007019	-0.0737	0.12161	-0.40817	0.006409	-0.014801
32.142	0.007172	-0.047607	-0.066071	0.015259	0.017395	0.030823	-0.18066	0.007477	0.023804	-0.027618	-0.016022	0.009766	0.014954	0.014801	0.72372	-0.009766	-0.005188	-0.23102	0.21576	0.005798	0.005493	0.094147	-0.084076	-0.044098	-0.065002	0.008545	0.005188	0.021973	0.52506	0.18143	-0.001068	-0.006866
32.143	0.011444	-0.053711	-0.058441	0.019073	0.009308	0.036469	-0.18982	0.014038	0.043182	-0.058594	0.034332	0.005951	0.059967	0.027008	-0.34882	-0.001373	0.006561	-0.28046	0.019073	0.061035	-0.028534	0.070953	-0.31494	-0.04303	-0.04715	0.001373	0.020752	0.031433	0.034943	0.30243	-0.001526	-0.008392
32.144	0.003967	-0.10208	-0.053711	0.018463	0.01297	0.01297	-0.17456	-0.047302	0.031738	-0.048065	0.10574	0.004883	0.00473	-0.029602	-0.28076	-0.004425	-0.005341	-0.30945	-0.15915	0.10132	-0.068665	0.051575	-0.44846	-0.177	-0.007782	-0.012054	0.042725	0.00473	-0.086823	0.17212	-0.002136	-0.001678
32.145	0.007782	-0.10696	-0.063934	0.029602	0.011749	0.007629	-0.15915	0.001984	-0.011597	-0.011597	0.085449	0.005035	-0.015259	-0.13702	-0.63416	-0.012207	-0.000305	-0.28153	0.086212	0.029907	-0.006714	0.047607	-0.35065	-0.11917	0.10941	-0.020752	0.062408	-0.00061	0.06485	0.24597	-0.000305	-0.002899
32.146	0.008087	-0.10666	-0.028992	0.027161	0.015717	0.009766	-0.15671	0.017548	-0.086212	-0.00885	0.014801	0.014496	0.009155	-0.16495	-0.4245	-0.013733	0.018616	-0.25818	-0.17883	-0.003662	0.094452	-0.024567	-0.21851	-0.02121	0.1561	-0.016327	0.15823	0.007782	0.13931	0.25269	-0.009003	-0.010071
32.147	0.011902	-0.13504	-0.006714	0.025635	0.017395	-0.004425	-0.11276	0.011902	-0.17807	-0.011749	-0.11581	0.006409	0.042114	-0.12711	-0.24353	-0.003967	0.007782	-0.21713	-0.11337	-0.07019	0.17899	-0.007782	-0.18494	0.034943	0.10071	-0.014496	0.25925	0.000305	-0.041199	0.12009	-0.006714	-0.008698
32.148	0.005951	-0.11826	0.014648	0.021362	0.028992	-0.022888	-0.095978	0.005951	-0.29511	0.002289	-0.1004	0.005341	0.033722	-0.098877	-0.003052	0.000763	0.023804	-0.2005	-0.00946	-0.081635	0.17456	0.05722	-0.18951	0.11643	0.10422	-0.003204	0.24048	-0.010529	0.098419	-0.02655	-0.002747	-0.008087
32.149	0.003815	-0.12405	0.010681	0.004883	0.028992	-0.013733	-0.070343	-0.003967	-0.35614	0.006409	-0.056305	0.00885	0.031586	-0.087433	0.53772	0.001373	0.01358	-0.22263	-0.062561	-0.041046	0.056152	0.13779	-0.13306	0.08667	0.060577	-0.00412	0.16892	-0.017853	0.12604	0.06485	0.000305	-0.00061
32.15	0.008698	-0.13153	0.018616	-0.004272	0.031128	-0.024261	-0.032043	0.001526	-0.34637	-0.00412	0.00412	0.015411	0.02182	-0.065918	-0.075531	0.00351	-0.016327	-0.20966	0.30777	0.061493	-0.28259	0.15381	-0.21378	0.11337	0.052032	0.013275	-0.16693	-0.005493	-0.18555	0.017548	-0.010681	0.001831
32.151	0.013733	-0.11597	0.011139	-0.012817	0.031586	-0.01236	0.010986	0.002136	-0.32715	-0.003967	-0.007477	0.00824	0.026245	-0.072479	-0.048523	0.009766	-0.015411	-0.18036	0.078583	0.12512	-0.23438	0.11078	-0.18539	0.13534	0.006866	-0.001984	-0.40497	0.007782	-0.21439	-0.072937	-0.000458	-0.00473
32.152	0.013275	-0.12116	-0.004883	-0.017242	0.019073	0.003662	0.022736	0.004425	-0.32013	0.004425	-0.032196	0.00824	0.03006	-0.097046	-0.1329	-0.002136	0.00412	-0.10895	-0.022888	0.089264	-0.34058	0.13031	-0.11505	0.083618	0.002136	-0.009918	-0.19775	0.002289	0.023193	-0.07431	-0.003052	-0.006256
32.153	0.009308	-0.13031	-0.050354	0.001831	0.029907	0.026245	0.070953	0.005493	-0.31387	-0.001984	-0.019073	0.006256	0.04776	-0.10971	-0.075378	0.002136	-0.000458	-0.15793	0.31036	0.043182	-0.38254	0.10925	-0.094147	0.071716	0.006866	-0.007477	0.039063	-0.004883	-0.066376	-0.03479	0.006256	-0.005493
32.154	0.007172	-0.1152	-0.053101	0	0.035095	0.045166	0.052338	0.009613	-0.23453	0	0.000763	0.010986	0.012665	-0.10147	-0.026245	0.001373	-0.014801	-0.17807	0.11215	0.025787	0.21301	0.05661	-0.082397	0.048981	-0.001984	-0.029297	0.15732	-0.00473	-0.27725	-0.064087	-0.00824	-0.007477
32.155	0.006104	-0.14969	-0.007935	-0.010834	0.032654	0.072021	0.04715	0.014343	-0.16327	-0.02182	0.001068	0.006714	0.016022	-0.073395	0.025177	-0.006409	-0.007782	-0.14618	-0.37811	0.021515	0.28275	0.023346	-0.042572	0.016937	0.000305	-0.037537	0.1561	-0.013123	-0.41626	-0.17792	-0.006561	-0.002594
32.156	-0.000458	-0.10971	-0.012054	-0.004272	0.0383	0.077057	0.064392	-0.001373	-0.085297	-0.014343	0.001984	0.00824	0.035706	-0.071259	0.043793	0.008545	-0.012054	-0.12711	-0.53207	0.04715	0.12589	0.004425	0.001526	-0.007935	-0.005798	-0.031128	0.10956	-0.065002	-0.17151	-0.081329	-0.005798	-0.003662
32.157	0.001526	-0.12009	-0.026398	-0.006104	0.036926	0.082245	0.025787	-0.00824	-0.036621	-0.013123	0.026245	0.007477	0.025024	-0.083008	0.063324	-0.002594	-0.011444	-0.06424	0.02594	0.034027	0.13519	0.014496	-0.009155	0.006104	0.006714	-0.023804	0.046539	-0.17593	0.15106	0	-0.00412	-0.000305
32.158	0.011139	-0.12711	-0.023346	0.012817	0.045929	0.09552	0.034027	0.018005	-0.006104	-0.007629	0.011597	-0.000916	0.015564	-0.067444	0.12543	0.001221	-0.009155	-0.080109	0.21622	-0.012054	0.068207	0.019684	0.028992	0.007935	-0.00351	0.03418	0	-0.32013	0.050201	-0.024109	-0.004883	-0.009918
32.159	0.00824	-0.11215	-0.001068	0.001678	-0.004578	0.10269	0.027618	0.00824	-0.001373	-0.009003	0.041809	0.001373	0.008087	-0.064087	0.20432	0.009155	-0.003052	-0.049744	0.52567	-0.015717	-0.006104	0.076294	0.040894	0.007782	-0.010071	0.045319	0.019226	0.30884	-0.25467	-0.2858	-0.008545	-0.010681
32.16	-0.000763	-0.11063	-0.045624	0.007935	-0.017395	0.093689	0.030212	-0.005646	-0.041962	-0.053253	0.027771	0.006714	0.016479	-0.06546	0.28656	0.012512	0.005951	-0.044861	0.7869	-0.001526	0.059204	0.054321	0.089874	-0.028534	-0.015869	0.014496	0.033569	0.28778	-0.028381	-0.48325	-0.010223	-0.013885
32.161	0.006104	-0.095673	-0.059814	0.001068	-0.019989	0.066376	0.020447	0.010834	-0.09613	-0.099335	-0.007935	0.005341	0.056305	-0.054169	0.064545	0.0177	-0.00412	-0.058289	0.63339	0.024719	0.085297	0.075684	0.10117	-0.050964	-0.002594	0.008392	0.042725	0.11032	0.20508	-0.30441	-0.006409	-0.003052
32.162	0.00473	-0.12466	-0.039215	-0.002747	-0.011444	0.058136	0.027008	0.016022	-0.121	-0.060425	-0.01236	0.003204	0.095062	-0.059814	-0.23804	0.013733	0.008087	-0.058441	0.25955	-0.002441	0.061188	0.089722	0.099945	-0.052948	-0.007935	-0.002289	0.031433	-0.052643	0.051727	0.37354	-0.01297	-0.006561
32.163	0.006104	-0.10773	0.013733	0.00946	-0.015411	0.063782	0.03479	0.00946	-0.098877	-0.015717	-0.027008	-0.000763	0.022125	-0.034637	-0.032349	0.012665	0.00885	-0.055695	0.28305	0.034637	-0.011139	0.097351	0.15274	-0.1178	-0.086517	-0.021973	0.047607	-0.54123	-0.22842	0.45593	-0.011749	-0.00473
32.164	0.00351	-0.097656	0.000153	0.015717	-0.02121	0.050201	0.020447	0.010986	-0.079041	0.004425	-0.018616	-0.002441	0.034637	-0.04425	-0.06134	0.004272	0.027161	0.046082	0.1384	0.011444	-0.04364	0.054474	0.015564	-0.1973	-0.11307	-0.031738	0.03418	0.10239	-0.13794	0.1799	-0.007477	-0.011597
32.165	0.006561	-0.10208	0.001526	0.010529	-0.022583	0.038147	0.020294	0.005493	-0.059204	0.018616	-0.057373	0.005188	0.059357	-0.085297	-0.086365	0.003357	0.005646	-0.00885	-0.14023	0.010986	-0.011749	0.059814	-0.007935	-0.16129	-0.06012	-0.015106	0.04425	0.34515	-0.13138	-0.17212	-0.007324	-0.013123
